<svg xmlns="http://www.w3.org/2000/svg" width="1024" height="1024" viewBox="0 0 1024 1024">
    <defs>
      <clipPath id="m"><rect x="0" y="0" width="1024" height="1024" rx="229" ry="229"></rect></clipPath>
      <radialGradient id="bg" cx="0.5" cy="0.15" r="1.1">
        <stop offset="0" stop-color="#1C2B4A"></stop>
        <stop offset="0.55" stop-color="#132038"></stop>
        <stop offset="1" stop-color="#0A1628"></stop>
      </radialGradient>
      <linearGradient id="drop" x1="0.3" y1="0" x2="0.7" y2="1">
        <stop offset="0" stop-color="#8BC0FF"></stop>
        <stop offset="0.55" stop-color="#3B82F6"></stop>
        <stop offset="1" stop-color="#1D4ED8"></stop>
      </linearGradient>
      <linearGradient id="sheen" x1="0" y1="0" x2="0" y2="1">
        <stop offset="0" stop-color="#fff" stop-opacity="0.08"></stop>
        <stop offset="0.5" stop-color="#fff" stop-opacity="0"></stop>
        <stop offset="1" stop-color="#000" stop-opacity="0.22"></stop>
      </linearGradient>
    </defs>
    <g clip-path="url(#m)">
      <rect width="1024" height="1024" fill="url(#bg)"></rect>
      <path d="M 490 180 C 490 180, 258 454.4, 258 640 a 232 232 0 0 0 464 0 C 722 454.4, 490 180, 490 180 Z" fill="url(#drop)"></path>
      <g transform="translate(720 720)">
        <circle r="170" fill="#0A1628"></circle>
        <circle r="148" fill="#10B981"></circle>
        <circle r="148" fill="none" stroke="rgba(255,255,255,0.18)" stroke-width="4"></circle>
        <path d="M -53.28 4 L -11.84 41.44 L 56.24 -38.48" fill="none" stroke="#fff" stroke-width="26" stroke-linecap="round" stroke-linejoin="round"></path>
      </g>
      <rect x="0" y="0" width="1024" height="1024" fill="url(#sheen)"></rect>
      <rect x="0.5" y="0.5" width="1023" height="1023" rx="229" ry="229" fill="none" stroke="rgba(255,255,255,0.1)" stroke-width="2"></rect>
    </g>
  </svg>